<svg xmlns="http://www.w3.org/2000/svg" viewBox="0 0 133.63 96.83"><defs><style>.cls-1{fill:#fff;}</style></defs><g id="Layer_2" data-name="Layer 2"><g id="Layer_1-2" data-name="Layer 1"><path class="cls-1" d="M66.77,52.8c-18.11,0-37.36-6.7-37.36-19.11,0-5.7,4.27-10.78,12-14.29a3.11,3.11,0,0,1,4.19,2,3.76,3.76,0,0,1-1.77,4.69c-4.93,2.24-8,5.16-8,7.62,0,4.86,12,11.9,30.93,11.9s30.93-7,30.93-11.9c0-2.53-3.19-5.51-8.33-7.77a3.76,3.76,0,0,1-1.81-4.67,3.11,3.11,0,0,1,4.17-2c8,3.52,12.41,8.66,12.41,14.47C104.14,46.1,84.89,52.8,66.77,52.8Z"/><path class="cls-1" d="M20.65,77.71C8.88,77.71,0,71.88,0,64.15S8.88,50.59,20.65,50.59s20.64,5.83,20.64,13.56S32.42,77.71,20.65,77.71Zm0-19.12c-8.25,0-13.51,3.65-13.51,5.56s5.26,5.56,13.51,5.56,13.5-3.65,13.5-5.56S28.89,58.59,20.65,58.59Z"/><path class="cls-1" d="M66.77,96.83C55,96.83,46.13,91,46.13,83.27S55,69.71,66.77,69.71s20.65,5.83,20.65,13.56S78.54,96.83,66.77,96.83Zm0-19.12c-8.24,0-13.5,3.65-13.5,5.56s5.26,5.56,13.5,5.56,13.51-3.65,13.51-5.56S75,77.71,66.77,77.71Z"/><path class="cls-1" d="M113,77.71c-11.77,0-20.65-5.83-20.65-13.56S101.22,50.59,113,50.59s20.64,5.83,20.64,13.56S124.76,77.71,113,77.71Zm0-19.12c-8.25,0-13.5,3.65-13.5,5.56s5.25,5.56,13.5,5.56,13.5-3.65,13.5-5.56S121.23,58.59,113,58.59Z"/><polygon class="cls-1" points="33.01 59.95 29.13 53.23 43.97 42.47 47.85 49.18 33.01 59.95"/><rect class="cls-1" x="63.2" y="49.81" width="7.14" height="23.9"/><polygon class="cls-1" points="100.61 59.95 85.72 49.17 89.6 42.45 104.48 53.23 100.61 59.95"/><path class="cls-1" d="M82.57,0H51a3.37,3.37,0,0,0-3.16,3.54V28.3A3.37,3.37,0,0,0,51,31.84H62c0,1.41-.28,3.67-1.18,4.74a1.48,1.48,0,0,1-1.2.57.83.83,0,0,0-.78.88.84.84,0,0,0,.78.89H73.88a.84.84,0,0,0,.79-.89.83.83,0,0,0-.79-.88,1.47,1.47,0,0,1-1.19-.57c-.9-1.06-1.14-3.32-1.18-4.74H82.57a3.37,3.37,0,0,0,3.16-3.54V3.54A3.37,3.37,0,0,0,82.57,0ZM66.77,30.08a1.79,1.79,0,1,1,1.59-1.78A1.69,1.69,0,0,1,66.77,30.08ZM51,24.77V3.54H82.57V24.77Z"/></g></g></svg>