<svg xmlns="http://www.w3.org/2000/svg" viewBox="0 0 672.34 127.3"><defs><style>.cls-1{font-size:109.59px;font-family:LEMONMILK-Regular, LEMON MILK;}.cls-1,.cls-2{fill:#2c2c2c;}</style></defs><g id="Layer_2" data-name="Layer 2"><g id="Layer_1-2" data-name="Layer 1"><text class="cls-1" transform="translate(145.49 97.92)">Wire Act</text><path class="cls-2" d="M66.77,56.85c-18.11,0-37.36-6.7-37.36-19.1,0-5.71,4.27-10.79,12-14.3a3.11,3.11,0,0,1,4.19,2,3.77,3.77,0,0,1-1.77,4.7c-4.93,2.23-8,5.15-8,7.62,0,4.85,12,11.9,30.93,11.9s30.93-7,30.93-11.9c0-2.53-3.19-5.51-8.33-7.78a3.75,3.75,0,0,1-1.81-4.67,3.11,3.11,0,0,1,4.17-2c8,3.52,12.41,8.67,12.41,14.48C104.14,50.15,84.89,56.85,66.77,56.85Z"/><path class="cls-2" d="M20.65,81.76C8.88,81.76,0,75.93,0,68.2S8.88,54.64,20.65,54.64,41.29,60.47,41.29,68.2,32.42,81.76,20.65,81.76Zm0-19.12c-8.25,0-13.51,3.65-13.51,5.56s5.26,5.56,13.51,5.56,13.5-3.65,13.5-5.56S28.89,62.64,20.65,62.64Z"/><path class="cls-2" d="M66.77,100.88c-11.77,0-20.64-5.83-20.64-13.56S55,73.76,66.77,73.76s20.65,5.83,20.65,13.56S78.54,100.88,66.77,100.88Zm0-19.12c-8.24,0-13.5,3.65-13.5,5.56s5.26,5.56,13.5,5.56,13.51-3.65,13.51-5.56S75,81.76,66.77,81.76Z"/><path class="cls-2" d="M113,81.76c-11.77,0-20.65-5.83-20.65-13.56S101.22,54.64,113,54.64s20.64,5.83,20.64,13.56S124.76,81.76,113,81.76Zm0-19.12c-8.25,0-13.5,3.65-13.5,5.56s5.25,5.56,13.5,5.56,13.5-3.65,13.5-5.56S121.23,62.64,113,62.64Z"/><polygon class="cls-2" points="33.01 64 29.13 57.28 43.97 46.52 47.85 53.23 33.01 64"/><rect class="cls-2" x="63.2" y="53.86" width="7.14" height="23.9"/><polygon class="cls-2" points="100.61 64 85.72 53.23 89.6 46.51 104.48 57.28 100.61 64"/><path class="cls-2" d="M82.57,4.05H51a3.37,3.37,0,0,0-3.16,3.54V32.36A3.36,3.36,0,0,0,51,35.89H62c0,1.42-.28,3.67-1.18,4.74a1.48,1.48,0,0,1-1.2.57.89.89,0,0,0,0,1.77H73.88a.89.89,0,0,0,0-1.77,1.47,1.47,0,0,1-1.19-.57c-.9-1.06-1.14-3.32-1.18-4.74H82.57a3.36,3.36,0,0,0,3.16-3.53V7.59A3.37,3.37,0,0,0,82.57,4.05ZM66.77,34.13a1.79,1.79,0,1,1,1.59-1.77A1.69,1.69,0,0,1,66.77,34.13ZM51,28.82V7.59H82.57V28.82Z"/></g></g></svg>