<svg xmlns="http://www.w3.org/2000/svg" width="24" height="24" viewBox="0 0 24 24"><defs><style>.a,.b{fill:none;}.a{fill-rule:evenodd;}.b{stroke:#006b99;stroke-linecap:round;stroke-linejoin:round;stroke-width:1.5px;}</style></defs><path class="a" d="M0,0H24V24H0Z"/><path class="b" d="M21,13.067v5.9A2.02,2.02,0,0,1,18.987,21H5.013A2.02,2.02,0,0,1,3,18.972V6.028A2.02,2.02,0,0,1,5.013,4H12"/><path class="b" d="M7.828,17.172l3.731-.933a1.006,1.006,0,0,0,.465-.263l8.39-8.39a2,2,0,0,0,0-2.828l-.172-.172a2,2,0,0,0-2.828,0l-8.39,8.39a1,1,0,0,0-.263.465l-.933,3.731"/><path class="b" d="M15.83,6.17l3,3"/><path class="b" d="M11.546,16.242a2.424,2.424,0,0,0,.032-.321,2.5,2.5,0,0,0-2.5-2.5,2.6,2.6,0,0,0-.321.032"/></svg>