<svg xmlns="http://www.w3.org/2000/svg" width="24" height="24" viewBox="0 0 24 24"><defs><style>.a,.b{fill:none;}.b{stroke:#ef4423;stroke-linecap:round;stroke-linejoin:round;stroke-width:1.5px;}</style></defs><path class="a" d="M0,0H24V24H0Z"/><path class="b" d="M16.138,21H7.858a2,2,0,0,1-1.995-1.853L4.966,7H19l-.867,12.142A2,2,0,0,1,16.138,21Z"/><path class="b" d="M12,11v6"/><path class="b" d="M4,7H20"/><path class="b" d="M17,7,15.987,4.3A2,2,0,0,0,14.114,3H9.886A2,2,0,0,0,8.013,4.3L7,7"/><path class="b" d="M15.43,11,15,17"/><path class="b" d="M8.57,11,9,17"/></svg>